<svg version="1.1" id="Layer_1" xmlns="http://www.w3.org/2000/svg" xmlns:xlink="http://www.w3.org/1999/xlink" x="0px" y="0px"
	 viewBox="0 0 28.2 22.4" style="enable-background:new 0 0 28.2 22.4;" xml:space="preserve">
<style type="text/css">
	.st0{fill-rule:evenodd;clip-rule:evenodd;fill:#FFFFFF;stroke:#2B2B2B;stroke-width:0.7087;stroke-linecap:round;}
</style>
<g id="svgGroup">
	<path vector-effect="non-scaling-stroke" class="st0" d="M4.6,22H1.2C1.1,22,1,22,1,22c-0.1,0-0.2-0.1-0.3-0.2
		c-0.1-0.1-0.2-0.3-0.2-0.6V1.1c0-0.1,0-0.2,0-0.3c0-0.1,0.1-0.2,0.2-0.3C0.8,0.4,1,0.4,1.2,0.4h3.4c0.1,0,0.2,0,0.3,0
		c0.1,0,0.2,0.1,0.3,0.2c0.1,0.1,0.2,0.3,0.2,0.6v7.7h8.4V1.1c0-0.1,0-0.2,0-0.3c0-0.1,0.1-0.2,0.2-0.3c0.1-0.1,0.3-0.2,0.6-0.2h3.4
		c0.1,0,0.2,0,0.3,0c0.1,0,0.2,0.1,0.3,0.2c0.1,0.1,0.2,0.3,0.2,0.6v20.1c0,0.1,0,0.2,0,0.3c0,0.1-0.1,0.2-0.2,0.3
		C18.3,22,18.1,22,17.9,22h-3.4c-0.1,0-0.2,0-0.3,0c-0.1,0-0.2-0.1-0.3-0.2c-0.1-0.1-0.2-0.3-0.2-0.6v-8H5.4v8c0,0.1,0,0.2,0,0.3
		c0,0.1-0.1,0.2-0.2,0.3C5,22,4.8,22,4.6,22z M27,22h-3.5c-0.1,0-0.2,0-0.3,0c-0.1,0-0.2-0.1-0.3-0.2c-0.1-0.1-0.2-0.3-0.2-0.6v-3.5
		c0-0.1,0-0.2,0-0.3c0-0.1,0.1-0.2,0.2-0.3c0.1-0.1,0.3-0.2,0.6-0.2H27c0.1,0,0.2,0,0.3,0c0.1,0,0.2,0.1,0.3,0.2
		c0.1,0.1,0.2,0.3,0.2,0.6v3.5c0,0.1,0,0.2,0,0.3c0,0.1-0.1,0.2-0.2,0.3C27.4,22,27.2,22,27,22z"/>
</g>
</svg>